<?xml version="1.0" encoding="UTF-8"?><svg version="1.1" viewBox="0 0 600 600" xmlns="http://www.w3.org/2000/svg" xmlns:xlink="http://www.w3.org/1999/xlink"><!--Generated by IJSVG (https://github.com/iconjar/IJSVG)--><defs><linearGradient id="a" x1="0.5" x2="0.5" y1="1" y2="-0.00175054"><stop offset="0%" stop-color="#0044A3"></stop><stop offset="100%" stop-color="#4592FF"></stop></linearGradient></defs><g fill="url(#a)" stroke="none"><path d="M583.763,147.817c0,0 -19.2907,-92.3077 -102.676,-124.74c-39.2036,-15.5925 -110.766,-22.4532 -181.083,-23.0769c-70.3176,0.623701 -141.88,7.48441 -181.083,23.0769c-83.3854,32.4324 -102.676,124.74 -102.676,124.74c-12.4456,52.3909 -16.8015,105.405 -16.1793,152.183c-0.622279,47.4012 3.1114,100.416 15.557,152.183c0,0 19.2907,92.3077 102.676,124.74c39.2036,14.9688 110.766,22.4532 181.083,23.0769c70.9398,0 142.502,-7.48441 181.706,-22.4532c83.3854,-32.4324 102.676,-124.74 102.676,-124.74c12.4456,-52.3909 16.8015,-105.405 16.1793,-152.183c0.622279,-47.4012 -3.73368,-100.416 -16.1793,-152.807Z"></path><path fill="#FFA800" d="M454,483h-43.7785c-27.762,0 -57.6595,-19.6797 -57.6595,-56.9116v-28.1894h-119.59v85.101h-44.8463c-27.762,0 -57.1256,-19.6797 -57.1256,-56.9116v-309.088c0,-0.552285 0.447715,-1 1,-1h51.3207c26.6942,0 49.1174,19.6797 49.1174,47.3377v153.715h120.124v-200.053c0,-0.552285 0.447715,-1 1,-1h48.6512c24.0248,0 51.7868,17.5522 51.7868,47.3377v319.662Z"></path><path fill="#FFF" d="M479,483h-42.7785c-27.762,0 -57.6595,-19.6797 -57.6595,-56.9116v-27.1894c0,-0.552285 -0.447715,-1 -1,-1h-117.59c-0.552285,0 -1,0.447715 -1,1v83.101c0,0.552285 -0.447715,1 -1,1h-43.8463c-27.762,0 -57.1256,-19.6797 -57.1256,-56.9116v-309.088c0,-0.552285 0.447715,-1 1,-1h51.3207c26.6942,0 49.1174,19.6797 49.1174,47.3377v152.715c0,0.552285 0.447716,1 1,1h118.124c0.552285,0 1,-0.447715 1,-1v-199.053c0,-0.552285 0.447715,-1 1,-1h48.6512c24.0248,0 51.7868,17.5522 51.7868,47.3377v318.662c0,0.552285 -0.447715,1 -1,1Z"></path></g></svg>