<?xml version="1.0" encoding="UTF-8"?><svg version="1.1" viewBox="0 0 542 170" xmlns="http://www.w3.org/2000/svg" xmlns:xlink="http://www.w3.org/1999/xlink"><!--Generated by IJSVG (https://github.com/iconjar/IJSVG)--><path d="M0.68,166v-137.088c0,-6.1227 1.79198,-10.416 5.376,-12.88c3.58402,-2.46401 8.28797,-3.696 14.112,-3.696c4.33069,0 8.17598,0.522661 11.536,1.568l5.07734,1.59289c0.572443,0.182518 1.008,0.323555 1.30666,0.423111v52.64h59.584v-39.648c0,-6.1227 1.79198,-10.416 5.376,-12.88c3.58402,-2.46401 8.28797,-3.696 14.112,-3.696c4.33069,0 8.17598,0.522661 11.536,1.568l5.07734,1.59289c0.572443,0.182518 1.008,0.323555 1.30667,0.423111v150.08h-37.408v-62.048h-59.584v62.048h-37.408Zm198.464,-53.312c0,15.5307 7.0186,23.296 21.056,23.296c14.0374,0 21.056,-7.76526 21.056,-23.296v-45.024c0,-5.82403 1.71732,-9.93065 5.152,-12.32c3.43468,-2.38935 7.98931,-3.584 13.664,-3.584c4.03202,0 7.69065,0.485329 10.976,1.456l4.49326,1.3445c0.806751,0.246642 1.39966,0.433142 1.77874,0.559502v64.288c0,8.36271 -1.45598,15.6426 -4.368,21.84c-2.91201,6.19736 -6.90664,11.3493 -11.984,15.456c-5.07736,4.10669 -11.1253,7.20532 -18.144,9.296c-7.0187,2.09068 -14.56,3.136 -22.624,3.136c-8.06404,0 -15.6053,-1.04532 -22.624,-3.136c-7.0187,-2.09068 -13.0666,-5.18931 -18.144,-9.296c-5.07736,-4.10669 -9.07198,-9.25864 -11.984,-15.456c-2.91201,-6.19736 -4.368,-13.4773 -4.368,-21.84v-51.744c0,-5.82403 1.71732,-9.93065 5.152,-12.32c3.43468,-2.38935 7.98931,-3.584 13.664,-3.584c4.03202,0 7.69065,0.485329 10.976,1.456l4.49326,1.3445c0.806751,0.246642 1.39966,0.433142 1.77874,0.559502v57.568Zm108.864,18.368c1.19467,0.896004 3.17332,1.97866 5.936,3.248c2.76268,1.26934 6.04798,2.46399 9.856,3.584c3.80802,1.12001 8.13864,2.09066 12.992,2.912c4.85336,0.821337 9.96797,1.232 15.344,1.232c6.1227,0 10.752,-0.559994 13.888,-1.68c3.13602,-1.12001 4.704,-3.09865 4.704,-5.936c0,-2.98668 -1.30665,-5.03999 -3.92,-6.16c-2.61335,-1.12001 -6.68264,-2.05333 -12.208,-2.8l-11.648,-1.344c-5.82403,-0.74667 -11.424,-1.82933 -16.8,-3.248c-5.37603,-1.41867 -10.1173,-3.50932 -14.224,-6.272c-4.10669,-2.76268 -7.35465,-6.30931 -9.744,-10.64c-2.38935,-4.33069 -3.584,-9.7813 -3.584,-16.352c0,-5.52536 1.00799,-10.64 3.024,-15.344c2.01601,-4.70402 5.18931,-8.81065 9.52,-12.32c4.33069,-3.50935 9.85597,-6.27199 16.576,-8.288c6.72003,-2.01601 14.7093,-3.024 23.968,-3.024c9.40805,0 17.5093,0.597327 24.304,1.792c6.7947,1.19467 12.656,3.06132 17.584,5.6c2.83735,1.49334 5.11466,3.32266 6.832,5.488c1.71734,2.16534 2.576,4.81598 2.576,7.952c0,2.38935 -0.485328,4.51732 -1.456,6.384c-0.970672,1.86668 -2.09066,3.47199 -3.36,4.816c-1.26934,1.34401 -2.46399,2.38933 -3.584,3.136l-0.622722,0.412161c-0.764588,0.501761 -1.26634,0.812371 -1.50528,0.931839c-0.425602,-0.425602 -1.55875,-1.18813 -3.39948,-2.2876l-0.296521,-0.176401c-2.01601,-1.19467 -4.70398,-2.35199 -8.064,-3.472c-3.36002,-1.12001 -7.39198,-2.128 -12.096,-3.024c-4.70402,-0.896005 -10.0426,-1.344 -16.016,-1.344c-6.72003,0 -11.3867,0.783992 -14,2.352c-2.61335,1.56801 -3.92,3.62132 -3.92,6.16c0,2.53868 1.19466,4.33066 3.584,5.376c2.38934,1.04534 5.97331,1.94133 10.752,2.688l20.384,2.912c5.07736,0.74667 9.96798,1.82933 14.672,3.248c4.70402,1.41867 8.88531,3.47199 12.544,6.16c3.65868,2.68801 6.57066,6.12265 8.736,10.304c2.16534,4.18135 3.248,9.25864 3.248,15.232c0,12.5441 -4.77862,22.3253 -14.336,29.344c-9.55738,7.0187 -22.7732,10.528 -39.648,10.528c-8.81071,0 -16.6133,-0.597327 -23.408,-1.792c-6.7947,-1.19467 -12.656,-2.57599 -17.584,-4.144c-4.92802,-1.56801 -8.92265,-3.21066 -11.984,-4.928l-1.51253,-0.85874c-2.26075,-1.30067 -3.88456,-2.32108 -4.87147,-3.06126l12.768,-23.296Zm120.288,-114.24c0,-5.82403 1.71732,-9.93065 5.152,-12.32c3.43468,-2.38935 7.98931,-3.584 13.664,-3.584c4.03202,1.11022e-16 7.65332,0.485328 10.864,1.456l4.3051,1.31461c0.842357,0.261512 1.46065,0.457974 1.8549,0.589388v54.208c2.83735,-2.53868 6.71997,-4.85332 11.648,-6.944c4.92802,-2.09068 11.2746,-3.136 19.04,-3.136c6.72003,0 12.9173,0.933324 18.592,2.8c5.67469,1.86668 10.64,4.77865 14.896,8.736c4.25602,3.95735 7.57866,8.95997 9.968,15.008c2.38935,6.04803 3.584,13.1786 3.584,21.392v69.664h-36.064v-62.272c0,-7.61604 -1.67998,-13.1413 -5.04,-16.576c-3.36002,-3.43468 -8.39997,-5.152 -15.12,-5.152c-6.72003,0 -11.9466,2.01598 -15.68,6.048c-3.73335,4.03202 -5.6,10.304 -5.6,18.816v59.136h-36.064v-149.184Z" fill="#0057D1" stroke="none"></path></svg>