<?xml version="1.0" encoding="UTF-8"?>
<svg width="16px" height="16px" viewBox="0 0 16 16" version="1.1" xmlns="http://www.w3.org/2000/svg" xmlns:xlink="http://www.w3.org/1999/xlink">
    <!-- Generator: sketchtool 57.1 (101010) - https://sketch.com -->
    <title>1A8E2606-C182-494C-9B3C-80C11CAB38E1</title>
    <desc>Created with sketchtool.</desc>
    <g id="MyProfile" stroke="none" stroke-width="1" fill="none" fill-rule="evenodd">
        <g id="UP-About-EditProfileExpanded" transform="translate(-198.000000, -449.000000)">
            <g id="ProfileNavigation" transform="translate(190.000000, 336.000000)">
                <g id="ProfileNavItem" transform="translate(0.000000, 105.000000)">
                    <g id="SettingsIcon" transform="translate(6.000000, 6.000000)">
                        <rect id="Rectangle" fill-opacity="0" fill="#DAE0E6" x="0" y="0" width="20" height="20" rx="1"></rect>
                        <path d="M17.3807258,8.67591709 C17.3594355,8.56148161 17.2595161,8.47849774 17.1429032,8.47849774 C16.5344355,8.47849774 15.9881452,8.11704612 15.7512903,7.55720741 C15.5144355,6.99930419 15.6346774,6.35696548 16.0578226,5.92051386 C16.1391129,5.83632032 16.1487903,5.70615903 16.0808065,5.61132032 C15.5891935,4.92519128 14.9853226,4.3307558 14.2854032,3.84398161 C14.1891129,3.77720741 14.0587097,3.78882032 13.9757258,3.87204612 C13.5583871,4.29132032 12.8957258,4.43212677 12.3404839,4.20591709 C11.7777419,3.97898161 11.4068548,3.43873967 11.3959677,2.82930419 C11.3937903,2.71293322 11.308871,2.61422354 11.1939516,2.59511064 C10.3902419,2.46132032 9.48395161,2.46833644 8.67685484,2.61833644 C8.56241935,2.6398687 8.47943548,2.73978806 8.47943548,2.85615903 C8.47943548,3.4648687 8.11798387,4.01091709 7.55862903,4.24777193 C7.00798387,4.48051386 6.34387097,4.35301386 5.91903226,3.94148161 C5.83508065,3.85994935 5.70443548,3.85051386 5.6091129,3.91873967 C4.91959677,4.41591709 4.3258871,5.02099774 3.84491935,5.71704612 C3.7783871,5.81309451 3.79024194,5.94349774 3.87346774,6.02599774 C4.30508065,6.45543322 4.43645161,7.09607838 4.20758065,7.65857838 C3.98064516,8.22132032 3.44040323,8.59196548 2.83072581,8.60309451 C2.71435484,8.60527193 2.61564516,8.69019128 2.59653226,8.80535257 C2.53217742,9.1873687 2.5,9.58898161 2.5,9.99930419 C2.5,10.4529332 2.54016129,10.8980945 2.61927419,11.3226913 C2.64056452,11.4371268 2.74048387,11.5201106 2.85709677,11.5201106 C3.46556452,11.5201106 4.01185484,11.8815623 4.24870968,12.441159 C4.48556452,13.0007558 4.36508065,13.6443042 3.94241935,14.0809977 C3.86064516,14.1654332 3.85120968,14.2960784 3.92016129,14.3909171 C4.4158871,15.0758364 5.01951613,15.6690623 5.71459677,16.1541429 C5.81064516,16.2209171 5.94153226,16.2095461 6.02451613,16.1263203 C6.44185484,15.7070461 7.105,15.5667235 7.65975806,15.7924493 C8.2225,16.0193848 8.5933871,16.5596268 8.60427419,17.1690623 C8.60645161,17.2854332 8.69137097,17.3841429 8.80629032,17.4032558 C9.18782258,17.4668848 9.58943548,17.4993042 10,17.4993042 C10.4541129,17.4993042 10.8995161,17.4591429 11.3233871,17.3802719 C11.4378226,17.3587397 11.5208065,17.2588203 11.5208065,17.1424493 C11.5208065,16.5337397 11.8822581,15.9876913 12.4416129,15.7508364 C12.9917742,15.5180945 13.656129,15.6453526 14.0812097,16.0571268 C14.1651613,16.1384171 14.2960484,16.1483364 14.391371,16.0796268 C15.0765323,15.583901 15.6697581,14.9802719 16.1548387,14.2851913 C16.2220968,14.188901 16.2102419,14.0582558 16.1270161,13.9752719 C15.6954032,13.5460784 15.5642742,12.9042235 15.7929032,12.34003 C16.0198387,11.7772881 16.5600806,11.4066429 17.1697581,11.3955139 C17.286129,11.3933364 17.3848387,11.3084171 17.4039516,11.1932558 C17.4678226,10.8112397 17.5,10.4096268 17.5,9.99930419 C17.5,9.54567515 17.4598387,9.10051386 17.3807258,8.67591709 Z M10,13.8709677 C7.86225806,13.8709677 6.12903226,12.1377419 6.12903226,10 C6.12903226,7.86225806 7.86225806,6.12903226 10,6.12903226 C12.1377419,6.12903226 13.8709677,7.86225806 13.8709677,10 C13.8709677,12.1377419 12.1377419,13.8709677 10,13.8709677 Z" id="Shape" fill="#3D76CC" fill-rule="nonzero"></path>
                    </g>
                </g>
            </g>
        </g>
    </g>
</svg>