<?xml version="1.0" encoding="UTF-8"?>
<svg width="20px" height="20px" viewBox="0 0 20 20" version="1.1" xmlns="http://www.w3.org/2000/svg" xmlns:xlink="http://www.w3.org/1999/xlink">
    <!-- Generator: sketchtool 57.1 (101010) - https://sketch.com -->
    <title>7B96792F-80FC-498D-B8FD-F618871BEC7F</title>
    <desc>Created with sketchtool.</desc>
    <g id="LR-Sidebar" stroke="none" stroke-width="1" fill="none" fill-rule="evenodd">
        <g id="Feed-LeftNavigation-States" transform="translate(-196.000000, -109.000000)" fill="#E4421C" fill-rule="nonzero">
            <g id="LeftNavigation" transform="translate(190.000000, 50.000000)">
                <g id="FeedGrp">
                    <g id="Channel02" transform="translate(0.000000, 53.000000)">
                        <g id="PopularIcon" transform="translate(6.000000, 6.000000)">
                            <g id="Shape">
                                <path d="M19,0 C19.5522847,-1.01453063e-16 20,0.44771525 20,1 L20,19 C20,19.5522847 19.5522847,20 19,20 L1,20 C0.44771525,20 9.09562337e-13,19.5522847 9.09494702e-13,19 L9.09494702e-13,1 C9.09427066e-13,0.44771525 0.44771525,1.01453063e-16 1,0 L19,0 Z M10.6840108,4 C9.32620154,5.20445329 9.10247161,6.15674931 9.35963245,7.61872491 C9.51907217,8.53883064 9.80709231,10.6848499 8.77844896,10.6848499 C7.79866616,10.6848499 7.5980807,9.45625386 7.5980807,7.40948803 C7.03232686,7.96745303 5.71566336,10.4782955 6.05511567,12.5277439 C6.76230798,16.7795444 12.646148,17.0477968 13.7416531,13.7643874 C15.1406081,9.60647521 10.3882758,8.38056173 10.6840108,4 Z M9.96861829,8 C10.5303644,9.92410994 12.8324735,11.3441573 11.9426046,12.9268054 C11.023861,14.5582339 9.2309984,13.7885899 9,13.0921163 C10.7666128,12.642254 10.4516149,11.2194966 10.2704912,10.4742428 C9.87411895,8.8509444 9.96861829,8 9.96861829,8 Z"></path>
                            </g>
                        </g>
                    </g>
                </g>
            </g>
        </g>
    </g>
</svg>