<?xml version="1.0" encoding="UTF-8"?>
<svg width="16px" height="16px" viewBox="0 0 16 16" version="1.1" xmlns="http://www.w3.org/2000/svg" xmlns:xlink="http://www.w3.org/1999/xlink">
    <!-- Generator: sketchtool 57.1 (101010) - https://sketch.com -->
    <title>19AC2AC3-8AA6-40A4-89D4-96818D07A913</title>
    <desc>Created with sketchtool.</desc>
    <g id="MyProfile" stroke="none" stroke-width="1" fill="none" fill-rule="evenodd">
        <g id="UP-About-EditProfile" transform="translate(-198.000000, -344.000000)">
            <g id="ProfileNavigation" transform="translate(190.000000, 336.000000)">
                <g id="ProfileNavItem">
                    <g id="My-Feed" transform="translate(6.000000, 6.000000)">
                        <rect id="Rectangle" fill-opacity="0" fill="#DAE0E6" x="0" y="0" width="20" height="20"></rect>
                        <g id="Group-3" transform="translate(2.400000, 2.600000)" fill="#3D76CC">
                            <path d="M13.2464256,2.13162821e-14 L1.73465097,2.13162821e-14 C0.788477712,2.13162821e-14 -3.26849658e-13,0.896341463 -3.26849658e-13,2.01219512 L-3.26849658e-13,12.8780488 C-3.26849658e-13,13.9756098 0.772708158,14.8902439 1.73465097,14.8902439 L13.2621951,14.8902439 C14.2083684,14.8902439 14.9968461,13.9939024 14.9968461,12.8780488 L14.9968461,1.99390244 C14.9810765,0.896341463 14.2083684,2.13162821e-14 13.2464256,2.13162821e-14 Z M14.2740844,12.8597561 C14.2740844,13.3902439 13.7195122,14.1849638 13.2621951,14.1849638 L1.73465097,14.1849638 C1.27733389,14.1849638 0.748916441,13.3902439 0.748916441,12.8597561 L0.748916441,1.99390244 C0.748916441,1.46341463 1.27733389,0.789524555 1.73465097,0.789524555 L13.2464256,0.789524555 C13.7037426,0.789524555 14.2740844,1.46341463 14.2740844,1.99390244 L14.2740844,12.8597561 Z" id="Shape" fill-rule="nonzero"></path>
                            <g id="Group" transform="translate(1.928890, 2.321951)">
                                <path d="M10.2294365,4.15365854 L0.893860387,4.15365854 C0.531160639,4.15365854 0.247308663,4.50121951 0.247308663,4.90365854 L0.247308663,9.53170732 C0.247308663,9.95243902 0.546930193,10.2817073 0.893860387,10.2817073 L10.2452061,10.2817073 C10.6079058,10.2817073 10.8917578,9.93414634 10.8917578,9.53170732 L10.8917578,4.90365854 C10.8917578,4.48292683 10.5921362,4.15365854 10.2294365,4.15365854 Z" id="Path" fill-rule="nonzero"></path>
                                <circle id="Oval" cx="1.47111018" cy="1.47804878" r="1.4"></circle>
                                <path d="M10.387132,0.0780487805 L4.04777124,0.0780487805 C3.77968881,0.0780487805 3.5431455,0.259146341 3.5431455,0.588414634 C3.5431455,0.899390244 3.76391926,1.09878049 4.04777124,1.09878049 L10.387132,1.09878049 C10.6552145,1.09878049 10.8917578,0.917682927 10.8917578,0.588414634 C10.8917578,0.259146341 10.6552145,0.0780487805 10.387132,0.0780487805 Z" id="Path" fill-rule="nonzero"></path>
                                <path d="M7.45399495,2.87804878 C7.72207738,2.87804878 7.92954605,2.68353659 7.92954605,2.35426829 C7.92954605,2.04329268 7.73784693,1.8304878 7.45399495,1.8304878 L4.04777124,1.8304878 C3.77968881,1.8304878 3.5431455,2.025 3.5431455,2.35426829 C3.5431455,2.6652439 3.76391926,2.87804878 4.04777124,2.87804878 L7.45399495,2.87804878 Z" id="Path" fill-rule="nonzero"></path>
                            </g>
                        </g>
                    </g>
                </g>
            </g>
        </g>
    </g>
</svg>