<?xml version="1.0" encoding="UTF-8"?>
<svg width="15px" height="16px" viewBox="0 0 15 16" version="1.1" xmlns="http://www.w3.org/2000/svg" xmlns:xlink="http://www.w3.org/1999/xlink">
    <!-- Generator: sketchtool 57.1 (101010) - https://sketch.com -->
    <title>EAE7C56F-B796-47FC-A95D-8BB071EF5FEF</title>
    <desc>Created with sketchtool.</desc>
    <g id="Icons" stroke="none" stroke-width="1" fill="none" fill-rule="evenodd">
        <g id="Artboard" transform="translate(-23.000000, -291.000000)">
            <g id="SearchHistoryIcon" transform="translate(19.000000, 287.000000)">
                <rect id="Rectangle" x="0" y="0" width="24" height="24"></rect>
                <path d="M4,10.4864865 C4,14.0660661 6.78587874,16.972973 10.2164236,16.972973 C11.5518035,16.972973 12.7720645,16.5405405 13.7851113,15.7957958 L17.561013,19.7357357 C17.7221796,19.9039039 17.9524175,20 18.1596316,20 C18.3668457,20 18.5970837,19.9039039 18.7582502,19.7357357 C19.0805833,19.3993994 19.0805833,18.8228228 18.7582502,18.4864865 L15.028396,14.5945946 C15.9033001,13.4654655 16.4328473,12.048048 16.4328473,10.4864865 C16.4328473,6.90690691 13.6469685,4 10.2164236,4 C6.78587874,4 4,6.90690691 4,10.4864865 Z M5.25,10.4 C5.25,7.58521327 7.50118483,5.28 10.25,5.28 C12.9988152,5.28 15.25,7.56094787 15.25,10.4 C15.25,13.2390521 12.9988152,15.52 10.25,15.52 C7.50118483,15.52 5.25,13.2147867 5.25,10.4 Z" id="Shape" fill="#C0C7CC" fill-rule="nonzero"></path>
            </g>
        </g>
    </g>
</svg>